<svg xmlns="http://www.w3.org/2000/svg" viewBox="0 0 390 125.3"><defs><style>.a{fill:#00938b;fill-rule:evenodd;}</style></defs><title>Recurso 1</title><path class="a" d="M40.4,41.3h3q16.2,0,29.7,13.7Q84,67.6,84,82.8V125a.3.3,0,0,1-.4.4H62a.3.3,0,0,1-.4-.4V82.7q0-10.6-10.7-17.1a19,19,0,0,0-7.8-2h-.9a.2.2,0,0,1-.2-.2l-.4.2h-.7q-9.8,0-16.4,10.4c-1.6,2.5-2.4,6.9-2.4,13.2V125a.3.3,0,0,1-.4.4H.4A.3.3,0,0,1,0,125V81.9Q0,66,13.3,52.3q13.1-11,27.1-11.1ZM380.6,0a9.4,9.4,0,1,1-9.4,9.4A9.4,9.4,0,0,1,380.6,0Zm-3.8,14.7h1.4V10.4h1.7l3,4.3h1.7L381.2,10l.9-.4a3,3,0,0,0,1.2-2.4c0-2-1.4-3.1-3.9-3.1l-2.6.2V14.7Zm1.4-9.4V9.4h2a1.9,1.9,0,0,0,1.7-2c0-1.4-.9-2.1-2.5-2.1h-1.1Zm2.5-4a8.2,8.2,0,1,0,8.2,8.2,8.2,8.2,0,0,0-8.2-8.2Zm-35,38.4h3c11,0,21.1,4.6,30.3,14Q390,66.6,390,81.9v.8q0,21.7-19.2,35.5a42.2,42.2,0,0,1-23.4,7.1h-.8q-15.9,0-28.8-11.6-13.5-13.6-13.4-29.8v-3c0-10.7,4.6-20.7,13.8-30.1q13.4-11.1,27.4-11.1Zm1.2,22.9h-.7c-6.6,0-12.2,3.5-16.7,10.5a23.2,23.2,0,0,0-2.4,9.4q0,11.8,11.6,18.1a20,20,0,0,0,8,1.8h1q11.1,0,17.4-10.9a18.4,18.4,0,0,0,2.2-8.6v-1q0-10.8-10.9-17.4a19.6,19.6,0,0,0-7.9-2h-.9a.2.2,0,0,1-.2-.2l-.4.2ZM247.5,0h21.5c.2.1.4.2.4.4V41.8h26c.2.1.4.2.4.4V63.8a.3.3,0,0,1-.4.4h-26V80c0,7,1.2,11.8,3.6,14.6q5.8,8.5,17.7,8.5h4.7a.3.3,0,0,1,.4.4V125a.3.3,0,0,1-.4.4h-8.1q-14.3,0-27.5-11.7-12.6-13.3-12.6-28.5V.4c.1-.2.2-.4.4-.4ZM226.6.4H228q6.6,0,10.2,7.6a11.8,11.8,0,0,1,.5,2.9v1.4c0,4.4-2.4,7.7-7.3,10a10.1,10.1,0,0,1-3.6.7h-1.4c-4.2,0-7.5-2.5-9.9-7.6a9.7,9.7,0,0,1-.5-3V11q0-6.7,7.6-10.1a9.9,9.9,0,0,1,3-.5ZM216.5,41.9h21.6q.4.1.4.4V125a.3.3,0,0,1-.4.4H216.5a.3.3,0,0,1-.4-.4V42.2c.1-.2.2-.4.4-.4ZM185.5,0H207c.2.1.4.2.4.4V84.1q0,20.3-18.4,34.3-11.4,6.9-21.5,6.9h-3.6q-14.3,0-27.4-11.7-12.6-13.3-12.6-28.5v-3q0-16,13.8-29.7a42.1,42.1,0,0,1,28.1-10.6,40.6,40.6,0,0,1,19.5,5V.4c.1-.2.2-.4.4-.4ZM146.2,82.5v.9a.2.2,0,0,1-.2.2l.2.4v.5q0,10.5,11.1,16.9a23.1,23.1,0,0,0,8.3,1.8q12,0,18.2-12.4a22.6,22.6,0,0,0,1.2-6.7v-.9q0-10.5-10.2-16.8a19.3,19.3,0,0,0-9.1-2.3q-13.4,0-18.9,13.7a17.9,17.9,0,0,0-.7,4.6ZM103.3.4h1.4q6.6,0,10.2,7.6a11.8,11.8,0,0,1,.5,2.9v1.4c0,4.4-2.4,7.7-7.3,10a10.1,10.1,0,0,1-3.6.7h-1.4c-4.2,0-7.5-2.5-9.9-7.6a9.7,9.7,0,0,1-.5-3V11q0-6.7,7.6-10.1a9.9,9.9,0,0,1,3-.5ZM93.2,41.9h21.6q.4.1.4.4V125a.3.3,0,0,1-.4.4H93.2a.3.3,0,0,1-.4-.4V42.2C92.9,42,93,41.9,93.2,41.9Z"/></svg>